<?xml version="1.0" encoding="UTF-8"?>
<svg version="1.1" xmlns="http://www.w3.org/2000/svg" width="256" height="256">
<path d="M0 0 C1.54300781 -0.03867188 1.54300781 -0.03867188 3.1171875 -0.078125 C7.84221787 0.43733286 10.42400628 2.61273298 13.875 5.75 C17.93316244 10.98965277 17.48071734 17.32973005 16.71484375 23.6171875 C14.28661111 36.67439055 8.75898328 48.14326904 0.125 58.25 C-2.875 60.25 -2.875 60.25 -5.875 60.25 C-5.25683845 56.3864903 -3.39020755 53.95057888 -1.125 50.8125 C5.05143808 41.77516242 9.19591636 31.81091297 9.4375 20.8125 C9.47488281 19.70003906 9.51226562 18.58757812 9.55078125 17.44140625 C9.0363259 13.58535102 7.81525788 12.00015231 5.125 9.25 C0.82333383 7.09916692 -4.74593874 7.60673683 -9.25390625 8.96875 C-29.01342591 17.49111674 -43.09814707 34.52325884 -51.59375 53.96875 C-56.1821744 65.71959297 -61.71433622 81.34943489 -56.4375 93.75 C-53.28298909 99.02643011 -47.58703761 102.34598746 -41.875 104.25 C-29.22758993 105.44215535 -18.48462908 104.46831773 -6.875 99.25 C-5.06331079 98.60189571 -3.25087636 97.95586856 -1.4375 97.3125 C2.65964153 95.67229343 5.59481036 93.48604955 8.75 90.421875 C10.125 89.25 10.125 89.25 12.125 89.25 C12.3725 88.13625 12.62 87.0225 12.875 85.875 C14.125 82.25 14.125 82.25 16.25 80.8125 C17.178125 80.5340625 17.178125 80.5340625 18.125 80.25 C20.125 82.25 20.125 82.25 20.3203125 84.8515625 C20.29710938 85.84929687 20.27390625 86.84703125 20.25 87.875 C20.23195313 88.87789063 20.21390625 89.88078125 20.1953125 90.9140625 C20.17210938 91.68492187 20.14890625 92.45578125 20.125 93.25 C24.03433583 93.69503001 24.03433583 93.69503001 25.9375 91.625 C27.4183343 89.25099774 27.4183343 89.25099774 26.625 86.375 C25.97903154 82.33769712 26.86671141 80.59849688 29.125 77.25 C31.25 76.3125 31.25 76.3125 33.125 76.25 C34.125 77.25 34.125 77.25 34.25 80.125 C34.125 83.25 34.125 83.25 33.125 86.25 C33.929375 86.229375 34.73375 86.20875 35.5625 86.1875 C38.125 86.25 38.125 86.25 39.125 87.25 C39.19819621 89.94654854 39.21742537 92.61691458 39.1875 95.3125 C39.18298828 96.07111328 39.17847656 96.82972656 39.17382812 97.61132812 C39.1620068 99.49091871 39.14407078 101.37046899 39.125 103.25 C44.07495439 96.37506335 46.08250282 89.37434632 48.125 81.25 C49.775 81.25 51.425 81.25 53.125 81.25 C53.62 87.685 53.62 87.685 54.125 94.25 C57.32110552 91.05389448 57.99546085 89.28610832 59.3125 85.0625 C59.65667969 83.97582031 60.00085938 82.88914062 60.35546875 81.76953125 C60.60941406 80.93808594 60.86335938 80.10664063 61.125 79.25 C63.6 78.755 63.6 78.755 66.125 78.25 C66.455 83.53 66.785 88.81 67.125 94.25 C67.785 94.25 68.445 94.25 69.125 94.25 C73.72047491 89.08009072 75.39107261 85.75783951 75.25 78.82421875 C75.23283936 77.55932617 75.21567871 76.29443359 75.19799805 74.99121094 C75.18554047 74.32827026 75.17308289 73.66532959 75.1602478 72.9822998 C74.57687437 39.1395697 74.57687437 39.1395697 83.59765625 28.515625 C85.125 27.25 85.125 27.25 88.125 26.75 C91.125 27.25 91.125 27.25 92.9375 29.5 C97.62007641 40.34386116 94.71129049 52.44346264 91.125 63.25 C89.50151073 67.24609358 87.70878911 71.15815654 85.76757812 75.00976562 C83.30879427 80.05282893 82.62529187 83.62828353 83.125 89.25 C84.4898868 92.65241824 84.4898868 92.65241824 86.125 95.25 C88.87890892 95.17131689 90.58388956 94.80609965 92.53515625 92.80078125 C96.40599957 87.59827755 97.28638355 83.26670972 97.1171875 76.78515625 C96.61346295 49.08459304 96.61346295 49.08459304 103.125 37.25 C104.115 36.26 104.115 36.26 105.125 35.25 C108.5625 35.25 108.5625 35.25 112.125 36.25 C115.938988 41.04824296 115.72052181 46.41057776 115.125 52.25 C113.48033153 62.14542197 109.64855131 71.60491331 104.9609375 80.4453125 C103.57302909 83.44163813 103.8451409 86.00363441 104.125 89.25 C105.68768641 93.52777182 105.68768641 93.52777182 109 96.4375 C111.36202578 96.40528657 111.36202578 96.40528657 113.75 94.4375 C116.87566062 90.24253443 117.46046488 86.35799384 118.125 81.25 C121.875 80.125 121.875 80.125 124.125 81.25 C124.5390625 84.19140625 124.5390625 84.19140625 124.75 87.8125 C124.86214844 89.60880859 124.86214844 89.60880859 124.9765625 91.44140625 C125.02554688 92.36824219 125.07453125 93.29507813 125.125 94.25 C127.65478658 93.86784075 128.83354198 93.58574032 130.5390625 91.62109375 C130.93867188 90.98300781 131.33828125 90.34492188 131.75 89.6875 C132.9765625 87.74609375 132.9765625 87.74609375 134.125 86.25 C134.785 86.25 135.445 86.25 136.125 86.25 C135.95498406 90.50039853 135.40548757 93.46920085 132.625 96.6875 C129.33094356 99.67847135 126.50250209 99.83559594 122.17578125 99.65625 C120.125 99.25 120.125 99.25 117.125 97.25 C116.774375 97.724375 116.42375 98.19875 116.0625 98.6875 C113.20660531 100.99064088 110.73373465 101.0600666 107.125 101.25 C104.00328757 100.38285766 103.25059739 99.42942484 101.375 96.75 C100.125 94.25 100.125 94.25 100.125 92.25 C99.465 92.25 98.805 92.25 98.125 92.25 C97.7846875 93.3328125 97.7846875 93.3328125 97.4375 94.4375 C95.80170664 97.94277149 94.18341033 99.87123641 91.125 102.25 C87.6875 103 87.6875 103 84.125 102.25 C81.75728007 100.16337924 79.98028808 97.78881526 78.125 95.25 C77.465 94.59 76.805 93.93 76.125 93.25 C75.01125 94.673125 75.01125 94.673125 73.875 96.125 C71.82888554 98.5561978 70.27079731 100.36524451 67.125 101.25 C64.5 101.125 64.5 101.125 62.125 100.25 C60.8125 98.1875 60.8125 98.1875 60.125 96.25 C59.774375 96.765625 59.42375 97.28125 59.0625 97.8125 C57.125 99.25 57.125 99.25 53.5625 99 C50.125 98.25 50.125 98.25 48.125 97.25 C47.72667969 97.94867188 47.32835937 98.64734375 46.91796875 99.3671875 C46.38816406 100.27726562 45.85835938 101.18734375 45.3125 102.125 C44.79042969 103.02992188 44.26835937 103.93484375 43.73046875 104.8671875 C42.125 107.25 42.125 107.25 39.125 109.25 C35.9375 108.875 35.9375 108.875 33.125 108.25 C32.22124347 101.92370431 32.22124347 96.57629569 33.125 90.25 C32.3825 90.9925 31.64 91.735 30.875 92.5 C29.9675 93.4075 29.06 94.315 28.125 95.25 C27.444375 95.9925 26.76375 96.735 26.0625 97.5 C23.92071975 99.43451119 23.00676395 100.16524224 20.125 100.25 C16.875 98.8125 16.875 98.8125 14.125 97.25 C14.125 96.59 14.125 95.93 14.125 95.25 C13.40699219 95.74628906 12.68898438 96.24257812 11.94921875 96.75390625 C-5.58565905 108.2618522 -26.52363574 115.02702026 -47.625 111.6875 C-53.71990034 110.07117284 -58.99768584 106.32196862 -62.29296875 100.9296875 C-63.3028549 98.72033368 -64.15491284 96.56885211 -64.875 94.25 C-65.15923828 93.35087891 -65.15923828 93.35087891 -65.44921875 92.43359375 C-69.48595038 71.73145629 -60.53839975 52.28528968 -49.6171875 35.29296875 C-47.22446643 31.78311632 -44.60911523 28.49739709 -41.875 25.25 C-41.24335937 24.45722656 -40.61171875 23.66445312 -39.9609375 22.84765625 C-30.47280407 11.42675489 -15.38387264 0.23018263 0 0 Z M87.125 33.25 C86.650625 34.44625 86.17625 35.6425 85.6875 36.875 C85.42066406 37.54789063 85.15382812 38.22078125 84.87890625 38.9140625 C83.33529526 43.69685718 82.98178226 48.52571201 82.80859375 53.5234375 C82.76669922 54.67714844 82.72480469 55.83085937 82.68164062 57.01953125 C82.64232422 58.20933594 82.60300781 59.39914063 82.5625 60.625 C82.51931641 61.83800781 82.47613281 63.05101562 82.43164062 64.30078125 C82.32594487 67.28375032 82.22384679 70.26679742 82.125 73.25 C85.02432825 70.35067175 85.60365536 66.78723896 86.6875 62.9375 C86.90857422 62.17759766 87.12964844 61.41769531 87.35742188 60.63476562 C89.17729588 54.30644244 90.26398502 48.6983919 90.25 42.0625 C90.25257813 40.83144531 90.25515625 39.60039063 90.2578125 38.33203125 C90.33888949 35.33753603 90.33888949 35.33753603 89.125 33.25 C88.465 33.25 87.805 33.25 87.125 33.25 Z M108.125 39.25 C105.6813427 45.24806792 104.63505464 50.97705489 103.9375 57.375 C103.85387207 58.1386084 103.77024414 58.9022168 103.68408203 59.68896484 C103.22684985 64.23277113 103.04627691 68.68406107 103.125 73.25 C109.25384786 65.98293754 111.32332545 54.58655195 111.125 45.25 C110.3477409 41.72764915 110.3477409 41.72764915 109.125 39.25 C108.795 39.25 108.465 39.25 108.125 39.25 Z " fill="#02ABB8" transform="translate(92.875,72.75)"/>
<path d="M0 0 C0.33 0.66 0.66 1.32 1 2 C1.99 1.67 2.98 1.34 4 1 C4 1.99 4 2.98 4 4 C10.27 4 16.54 4 23 4 C23.33 3.01 23.66 2.02 24 1 C24.99 1.33 25.98 1.66 27 2 C26.67 2.66 26.34 3.32 26 4 C27.98 4.33 29.96 4.66 32 5 C32 5.99 32 6.98 32 8 C28.26368357 10.39954544 24.97204502 10.22993687 20.609375 10.1953125 C19.90476135 10.1924826 19.20014771 10.18965271 18.47418213 10.18673706 C16.2326124 10.17557801 13.99144814 10.15048193 11.75 10.125 C10.22656829 10.11496464 8.70313029 10.10583976 7.1796875 10.09765625 C3.45299414 10.07565291 -0.27346333 10.04115272 -4 10 C-4 9.34 -4 8.68 -4 8 C-4.99 8.66 -5.98 9.32 -7 10 C-7.99 10 -8.98 10 -10 10 C-8.33435265 3.8926264 -6.78451913 0 0 0 Z M-4 3 C-3 5 -3 5 -3 5 Z " fill="#03AAB7" transform="translate(205,177)"/>
<path d="M0 0 C1.32 0 2.64 0 4 0 C4.625 2.3125 4.625 2.3125 5 5 C4.01 6.485 4.01 6.485 3 8 C1.35 7.67 -0.3 7.34 -2 7 C-2.125 4.625 -2.125 4.625 -2 2 C-1.34 1.34 -0.68 0.68 0 0 Z " fill="#03ABB8" transform="translate(214,142)"/>
<path d="M0 0 C0.125 2.375 0.125 2.375 0 5 C-0.66 5.66 -1.32 6.32 -2 7 C-4.0625 6.8125 -4.0625 6.8125 -6 6 C-7 3 -7 3 -6 0 C-3.50907189 -1.24546405 -2.58919267 -0.7767578 0 0 Z " fill="#02ABB7" transform="translate(116,143)"/>
</svg>
